# File created by Blade
# Date/Time:  Tue Jan 27 18:05:51 2015
#---------------------------------------------------------
:version 1.10
:name HOM
:units
  mass 1.0
  length 1.000000
  angle deg
:documentation
     Acclaim Skeleton File
:root
   axis xyz
   order TX TY TZ RX RY RZ
   position 0.000000 0.000000 0.000000
   orientation 0 0 0
:bonedata
   begin
      id 1
      name Spine_dum
      direction 0.000000 1.000000 0.000000
      length 5.195262
      axis 0.0 0.0 0.0 xyz
   end
   begin
      id 2
      name LeftUpLeg_dum
      direction 1.000000 0.000000 0.000000
      length 3.351363
      axis 0.0 0.0 0.0 xyz
   end
   begin
      id 3
      name RightUpLeg_dum
      direction -1.000000 0.000000 0.000000
      length 3.351363
      axis 0.0 0.0 0.0 xyz
   end
   begin
      id 4
      name Spine
      direction 0.000000 1.000000 0.000000
      length 0.000000
      axis 0.0 0.0 0.0 xyz
      dof rx ry rz
   end
   begin
      id 5
      name Spine_dum1
      direction 0.000000 1.000000 0.000000
      length 15.653875
      axis 0.0 0.0 0.0 xyz
   end
   begin
      id 6
      name Spine_dum2
      direction 0.000000 1.000000 0.000000
      length 10.329768
      axis 0.0 0.0 0.0 xyz
   end
   begin
      id 7
      name Spine_dum3
      direction 0.000000 1.000000 0.000000
      length 10.329768
      axis 0.0 0.0 0.0 xyz
   end
   begin
      id 8
      name Head
      direction 0.000000 1.000000 0.000000
      length 4.527550
      axis 0.0 0.0 0.0 xyz
      dof rx ry rz
   end
   begin
      id 9
      name LeftShoulder
      direction 1.000000 0.000000 0.000000
      length 6.996006
      axis 0.0 0.0 -90.0 xyz
      dof rx ry rz
   end
   begin
      id 10
      name LeftArm
      direction 1.000000 0.000000 0.000000
      length 10.209302
      axis 0.0 0.0 -90.0 xyz
      dof rx ry rz
   end
   begin
      id 11
      name LeftForeArm
      direction 1.000000 0.000000 0.000000
      length 8.563163
      axis 0.0 0.0 -90.0 xyz
      dof ry rz rx
   end
   begin
      id 12
      name LeftHand
      direction 0.000000 0.000000 0.000000
      length 0.000000
      axis 0.0 0.0 -90.0 xyz
      dof rx ry rz
   end
   begin
      id 13
      name LeftHand_dum1
      direction 0.000000 0.000000 0.000000
      length 0.000000
      axis 0.0 0.0 -90.0 xyz
   end
   begin
      id 14
      name LeftHand_dum2
      direction 1.000000 0.000000 0.000000
      length 3.937000
      axis 0.0 0.0 -90.0 xyz
   end
   begin
      id 15
      name LeftHandThumb1
      direction 0.000000 0.000000 1.000000
      length 3.937000
      axis 0.0 0.0 -90.0 xyz
      dof rx rz ry
   end
   begin
      id 16
      name RightShoulder
      direction -1.000000 0.000000 0.000000
      length 6.996006
      axis 0.0 0.0 90.0 xyz
      dof rx ry rz
   end
   begin
      id 17
      name RightArm
      direction -1.000000 0.000000 0.000000
      length 10.209302
      axis 0.0 0.0 90.0 xyz
      dof rx ry rz
   end
   begin
      id 18
      name RightForeArm
      direction -1.000000 0.000000 0.000000
      length 8.563163
      axis 0.0 0.0 90.0 xyz
      dof ry rz rx
   end
   begin
      id 19
      name RightHand
      direction 0.000000 0.000000 0.000000
      length 0.000000
      axis 0.0 0.0 90.0 xyz
      dof rx ry rz
   end
   begin
      id 20
      name RightHand_dum1
      direction 0.000000 0.000000 0.000000
      length 0.000000
      axis 0.0 0.0 90.0 xyz
   end
   begin
      id 21
      name RightHand_dum2
      direction -1.000000 0.000000 0.000000
      length 3.937000
      axis 0.0 0.0 90.0 xyz
   end
   begin
      id 22
      name RightHandThumb1
      direction 0.000000 0.000000 1.000000
      length 3.937000
      axis 0.0 0.0 90.0 xyz
      dof rx rz ry
   end
   begin
      id 23
      name LeftUpLeg
      direction 0.000000 -1.000000 0.000000
      length 16.346831
      axis 0.0 0.0 0.0 xyz
      dof rx ry rz
   end
   begin
      id 24
      name LeftLeg
      direction 0.000000 -1.000000 0.000000
      length 13.959795
      axis 0.0 0.0 0.0 xyz
      dof rx ry rz
   end
   begin
      id 25
      name LeftFoot
      direction 0.000000 -0.258819 0.965926
      length 5.165550
      axis 15.0 0.0 0.0 xyz
      dof rx ry rz
   end
   begin
      id 26
      name LeftToeBase
      direction 0.000000 0.000000 1.000000
      length 2.952750
      axis 0.0 0.0 0.0 xyz
      dof rx ry rz
   end
   begin
      id 27
      name RightUpLeg
      direction 0.000000 -1.000000 0.000000
      length 16.346831
      axis 0.0 0.0 0.0 xyz
      dof rx ry rz
   end
   begin
      id 28
      name RightLeg
      direction 0.000000 -1.000000 0.000000
      length 13.959795
      axis 0.0 0.0 0.0 xyz
      dof rx ry rz
   end
   begin
      id 29
      name RightFoot
      direction 0.000000 -0.258819 0.965926
      length 5.165550
      axis 15.0 0.0 0.0 xyz
      dof rx ry rz
   end
   begin
      id 30
      name RightToeBase
      direction 0.000000 0.000000 1.000000
      length 2.952750
      axis 0.0 0.0 0.0 xyz
      dof rx ry rz
   end
:hierarchy
   begin
      root Spine_dum LeftUpLeg_dum RightUpLeg_dum
      Spine_dum Spine
      LeftUpLeg_dum LeftUpLeg
      RightUpLeg_dum RightUpLeg
      Spine Spine_dum1 Spine_dum2 Spine_dum3
      Spine_dum1 Head
      Spine_dum2 LeftShoulder
      Spine_dum3 RightShoulder
      LeftShoulder LeftArm
      LeftArm LeftForeArm
      LeftForeArm LeftHand
      LeftHand LeftHand_dum1 LeftHand_dum2
      LeftHand_dum1 LeftHandThumb1
      RightShoulder RightArm
      RightArm RightForeArm
      RightForeArm RightHand
      RightHand RightHand_dum1 RightHand_dum2
      RightHand_dum1 RightHandThumb1
      LeftUpLeg LeftLeg
      LeftLeg LeftFoot
      LeftFoot LeftToeBase
      RightUpLeg RightLeg
      RightLeg RightFoot
      RightFoot RightToeBase
   end

# File created by Blade
# Date/Time:  Tue Jan 27 18:05:41 2015
# Frame Rate: 120.000 fps
#------------------------------------------------------
:FULLY-SPECIFIED
:DEGREES
147
root -1.526385 31.881949 -6.623466 5.768158 7.016406 3.321039
Spine -6.728423 -7.040442 -1.573292
Head 3.170373 3.402401 -0.067213
LeftShoulder -17.296272 16.284784 21.649410
LeftArm 23.974298 -17.225325 -27.931485
LeftForeArm 0.392641 -0.000000 0.988920
LeftHand -13.088405 -0.000000 -10.399248
LeftHandThumb1 -26.253704 0.000000 33.147579
RightShoulder -10.208294 10.339476 -35.445404
RightArm 22.776236 33.311683 44.437978
RightForeArm -18.124110 -0.000000 41.132708
RightHand -16.670632 -0.000000 3.225469
RightHandThumb1 -24.326973 -0.000000 -32.862282
LeftUpLeg -1.654611 -1.055747 -0.907076
LeftLeg 1.177906 -0.000000 -0.000000
LeftFoot -17.720641 16.614076 -24.973401
LeftToeBase 8.672177 -0.000000 -0.000000
RightUpLeg 1.360824 -4.467765 -3.598859
RightLeg -3.740451 -0.000000 0.000000
RightFoot -14.735996 -13.606292 9.756297
RightToeBase 5.129973 -0.000000 -0.000000
148
root -1.523687 31.882640 -6.626254 5.749867 6.990228 3.326904
Spine -6.769804 -7.025180 -1.514704
Head 3.180679 3.216628 -0.131418
LeftShoulder -17.294018 16.430610 21.480603
LeftArm 24.212765 -16.918225 -28.122793
LeftForeArm 0.144960 0.000000 1.000183
LeftHand -13.057293 -0.000000 -10.166965
LeftHandThumb1 -26.253704 0.000000 33.147579
RightShoulder -10.129423 10.516287 -35.357533
RightArm 23.375113 34.148815 45.519349
RightForeArm -17.716196 -0.000000 43.209327
RightHand -16.422750 -0.000000 2.874204
RightHandThumb1 -24.326973 -0.000000 -32.862282
LeftUpLeg -1.644951 -1.051871 -0.922002
LeftLeg 1.191326 -0.000000 -0.000000
LeftFoot -17.731856 16.638917 -24.994167
LeftToeBase 8.651264 -0.000000 -0.000000
RightUpLeg 1.368245 -4.458527 -3.613733
RightLeg -3.735961 -0.000000 0.000000
RightFoot -14.723474 -13.606681 9.720761
RightToeBase 5.067024 -0.000000 -0.000000
149
root -1.519707 31.883378 -6.629956 5.724513 6.964402 3.332415
Spine -6.810841 -7.003429 -1.451677
Head 3.230987 3.043259 -0.196901
LeftShoulder -17.239979 16.516049 21.343372
LeftArm 24.344354 -16.548068 -28.336940
LeftForeArm 0.139310 -0.000000 1.129349
LeftHand -13.068905 0.000000 -9.960929
LeftHandThumb1 -26.253704 0.000000 33.147579
RightShoulder -10.055950 10.602809 -35.271677
RightArm 24.160813 34.896068 46.711021
RightForeArm -17.184535 -0.000000 45.176216
RightHand -16.261711 -0.000000 2.321961
RightHandThumb1 -24.326973 -0.000000 -32.862282
LeftUpLeg -1.625509 -1.059637 -0.936220
LeftLeg 1.198943 -0.000000 -0.000000
LeftFoot -17.734101 16.665259 -24.978118
LeftToeBase 8.662792 -0.000000 -0.000000
RightUpLeg 1.377443 -4.460143 -3.630313
RightLeg -3.721164 -0.000000 0.000000
RightFoot -14.718304 -13.587518 9.709024
RightToeBase 5.070770 -0.000000 -0.000000
150
root -1.516660 31.884685 -6.633867 5.708204 6.939203 3.334081
Spine -6.868834 -6.994459 -1.364717
Head 3.273010 2.845068 -0.315134
LeftShoulder -17.196002 16.625550 21.173831
LeftArm 24.453798 -16.161647 -28.572601
LeftForeArm 0.235068 -0.000000 1.369793
LeftHand -13.150720 -0.000000 -9.710803
LeftHandThumb1 -26.253704 0.000000 33.147579
RightShoulder -9.972303 10.789284 -35.215624
RightArm 24.910843 35.502285 47.916481
RightForeArm -16.850077 0.000000 47.234662
RightHand -16.409150 -0.000000 1.798091
RightHandThumb1 -24.326973 -0.000000 -32.862282
LeftUpLeg -1.619628 -1.051345 -0.945995
LeftLeg 1.213723 -0.000000 -0.000000
LeftFoot -17.734856 16.669670 -24.991797
LeftToeBase 8.652265 -0.000000 -0.000000
RightUpLeg 1.385407 -4.440834 -3.638699
RightLeg -3.726761 -0.000000 0.000000
RightFoot -14.697355 -13.581295 9.729416
RightToeBase 5.060629 -0.000000 -0.000000
